<mxfile host="drawio-plugin" modified="2021-11-16T10:38:11.145Z" agent="5.0 (Macintosh; Intel Mac OS X 10_16_0) AppleWebKit/537.36 (KHTML, like Gecko) Chrome/84.0.4147.105 Safari/537.36" etag="nEsIqCBpbrq82ZrMVaNh" version="14.7.4" type="embed"><diagram id="ZKHTDdlaXFkyAefSsmME" name="Page-1"><mxGraphModel dx="3086" dy="2534" grid="1" gridSize="10" guides="1" tooltips="1" connect="1" arrows="0" fold="1" page="1" pageScale="1" pageWidth="2336" pageHeight="1654" math="0" shadow="0"><root><mxCell id="0"/><mxCell id="1" parent="0" visible="0"/><mxCell id="j0Ey7iJQX1aD5_uYlDzb-14" value="Subnets colour" style="locked=1;" parent="0" visible="0"/><mxCell id="j0Ey7iJQX1aD5_uYlDzb-15" value="" style="group" parent="j0Ey7iJQX1aD5_uYlDzb-14" vertex="1" connectable="0"><mxGeometry x="490" y="400" width="1300" height="989.88" as="geometry"/></mxCell><mxCell id="j0Ey7iJQX1aD5_uYlDzb-16" value="Public subnet" style="points=[[0,0],[0.25,0],[0.5,0],[0.75,0],[1,0],[1,0.25],[1,0.5],[1,0.75],[1,1],[0.75,1],[0.5,1],[0.25,1],[0,1],[0,0.75],[0,0.5],[0,0.25]];outlineConnect=0;gradientColor=none;html=1;whiteSpace=wrap;fontSize=12;fontStyle=0;shape=mxgraph.aws4.group;grIcon=mxgraph.aws4.group_security_group;grStroke=0;strokeColor=#248814;fillColor=#E9F3E6;verticalAlign=top;align=left;spacingLeft=30;fontColor=#248814;dashed=0;" parent="j0Ey7iJQX1aD5_uYlDzb-15" vertex="1"><mxGeometry width="1300" height="325.1101064368981" as="geometry"/></mxCell><mxCell id="j0Ey7iJQX1aD5_uYlDzb-17" value="Private subnet Application" style="points=[[0,0],[0.25,0],[0.5,0],[0.75,0],[1,0],[1,0.25],[1,0.5],[1,0.75],[1,1],[0.75,1],[0.5,1],[0.25,1],[0,1],[0,0.75],[0,0.5],[0,0.25]];outlineConnect=0;gradientColor=none;html=1;whiteSpace=wrap;fontSize=12;fontStyle=0;shape=mxgraph.aws4.group;grIcon=mxgraph.aws4.group_security_group;grStroke=0;strokeColor=#147EBA;fillColor=#E6F2F8;verticalAlign=top;align=left;spacingLeft=30;fontColor=#147EBA;dashed=0;" parent="j0Ey7iJQX1aD5_uYlDzb-15" vertex="1"><mxGeometry y="334.468728636594" width="1300" height="321.0964014191586" as="geometry"/></mxCell><mxCell id="j0Ey7iJQX1aD5_uYlDzb-18" value="Private subnet Data" style="points=[[0,0],[0.25,0],[0.5,0],[0.75,0],[1,0],[1,0.25],[1,0.5],[1,0.75],[1,1],[0.75,1],[0.5,1],[0.25,1],[0,1],[0,0.75],[0,0.5],[0,0.25]];outlineConnect=0;gradientColor=none;html=1;whiteSpace=wrap;fontSize=12;fontStyle=0;shape=mxgraph.aws4.group;grIcon=mxgraph.aws4.group_security_group;grStroke=0;strokeColor=#147EBA;verticalAlign=top;align=left;spacingLeft=30;fontColor=#147EBA;dashed=0;fillColor=#FFCCFF;" parent="j0Ey7iJQX1aD5_uYlDzb-15" vertex="1"><mxGeometry y="668.7835985808414" width="1300" height="321.0964014191586" as="geometry"/></mxCell><mxCell id="j0Ey7iJQX1aD5_uYlDzb-19" value="Subnets grey" style="locked=1;" parent="0"/><mxCell id="j0Ey7iJQX1aD5_uYlDzb-70" value="" style="group" parent="j0Ey7iJQX1aD5_uYlDzb-19" vertex="1" connectable="0"><mxGeometry x="500" y="400" width="1280" height="990" as="geometry"/></mxCell><mxCell id="j0Ey7iJQX1aD5_uYlDzb-20" value="Subnet public" style="outlineConnect=0;gradientColor=none;html=1;whiteSpace=wrap;fontSize=12;fontStyle=0;shape=mxgraph.aws4.group;grIcon=mxgraph.aws4.group_subnet;strokeColor=#879196;fillColor=none;verticalAlign=top;align=left;spacingLeft=30;fontColor=#879196;dashed=0;" parent="j0Ey7iJQX1aD5_uYlDzb-70" vertex="1"><mxGeometry width="1280" height="321.0810810810811" as="geometry"/></mxCell><mxCell id="j0Ey7iJQX1aD5_uYlDzb-21" value="Subnet application" style="outlineConnect=0;gradientColor=none;html=1;whiteSpace=wrap;fontSize=12;fontStyle=0;shape=mxgraph.aws4.group;grIcon=mxgraph.aws4.group_subnet;strokeColor=#879196;fillColor=none;verticalAlign=top;align=left;spacingLeft=30;fontColor=#879196;dashed=0;" parent="j0Ey7iJQX1aD5_uYlDzb-70" vertex="1"><mxGeometry y="334.4594594594595" width="1280" height="321.0810810810811" as="geometry"/></mxCell><mxCell id="j0Ey7iJQX1aD5_uYlDzb-22" value="Subnet Data" style="outlineConnect=0;gradientColor=none;html=1;whiteSpace=wrap;fontSize=12;fontStyle=0;shape=mxgraph.aws4.group;grIcon=mxgraph.aws4.group_subnet;strokeColor=#879196;fillColor=none;verticalAlign=top;align=left;spacingLeft=30;fontColor=#879196;dashed=0;" parent="j0Ey7iJQX1aD5_uYlDzb-70" vertex="1"><mxGeometry y="668.918918918919" width="1280" height="321.0810810810811" as="geometry"/></mxCell><mxCell id="j0Ey7iJQX1aD5_uYlDzb-1" value="VPC" style="locked=1;" parent="0"/><mxCell id="j0Ey7iJQX1aD5_uYlDzb-69" value="" style="group" parent="j0Ey7iJQX1aD5_uYlDzb-1" vertex="1" connectable="0"><mxGeometry x="480" y="320" width="1320" height="1080" as="geometry"/></mxCell><mxCell id="j0Ey7iJQX1aD5_uYlDzb-2" value="VPC" style="points=[[0,0],[0.25,0],[0.5,0],[0.75,0],[1,0],[1,0.25],[1,0.5],[1,0.75],[1,1],[0.75,1],[0.5,1],[0.25,1],[0,1],[0,0.75],[0,0.5],[0,0.25]];outlineConnect=0;gradientColor=none;html=1;whiteSpace=wrap;fontSize=12;fontStyle=0;shape=mxgraph.aws4.group;grIcon=mxgraph.aws4.group_vpc;strokeColor=#248814;fillColor=none;verticalAlign=top;align=left;spacingLeft=30;fontColor=#AAB7B8;dashed=0;" parent="j0Ey7iJQX1aD5_uYlDzb-69" vertex="1"><mxGeometry width="1319.9999999999998" height="1080" as="geometry"/></mxCell><mxCell id="j0Ey7iJQX1aD5_uYlDzb-5" value="Availability zone C" style="outlineConnect=0;gradientColor=none;html=1;whiteSpace=wrap;fontSize=12;fontStyle=0;shape=mxgraph.aws4.group;grIcon=mxgraph.aws4.group_availability_zone;strokeColor=#545B64;fillColor=none;verticalAlign=top;align=left;spacingLeft=30;fontColor=#545B64;dashed=1;" parent="j0Ey7iJQX1aD5_uYlDzb-69" vertex="1"><mxGeometry x="886.87" y="40.5" width="423.13" height="1026" as="geometry"/></mxCell><mxCell id="j0Ey7iJQX1aD5_uYlDzb-4" value="Availability zone B" style="outlineConnect=0;gradientColor=none;html=1;whiteSpace=wrap;fontSize=12;fontStyle=0;shape=mxgraph.aws4.group;grIcon=mxgraph.aws4.group_availability_zone;strokeColor=#545B64;fillColor=none;verticalAlign=top;align=left;spacingLeft=30;fontColor=#545B64;dashed=1;" parent="j0Ey7iJQX1aD5_uYlDzb-69" vertex="1"><mxGeometry x="453.75" y="40.5" width="416.25" height="1026" as="geometry"/></mxCell><mxCell id="j0Ey7iJQX1aD5_uYlDzb-3" value="Availability zone A" style="outlineConnect=0;gradientColor=none;html=1;whiteSpace=wrap;fontSize=12;fontStyle=0;shape=mxgraph.aws4.group;grIcon=mxgraph.aws4.group_availability_zone;strokeColor=#545B64;fillColor=none;verticalAlign=top;align=left;spacingLeft=30;fontColor=#545B64;dashed=1;" parent="j0Ey7iJQX1aD5_uYlDzb-69" vertex="1"><mxGeometry x="10" y="40.5" width="430" height="1026" as="geometry"/></mxCell><mxCell id="j0Ey7iJQX1aD5_uYlDzb-102" value="" style="outlineConnect=0;dashed=0;verticalLabelPosition=bottom;verticalAlign=top;align=center;html=1;shape=mxgraph.aws3.internet_gateway;fillColor=#F58536;gradientColor=none;rounded=0;strokeColor=#000000;strokeWidth=2;fontColor=#006600;" parent="j0Ey7iJQX1aD5_uYlDzb-1" vertex="1"><mxGeometry x="1099" y="290" width="69" height="72" as="geometry"/></mxCell><mxCell id="j0Ey7iJQX1aD5_uYlDzb-23" value="Database" style="locked=1;" parent="0"/><mxCell id="j0Ey7iJQX1aD5_uYlDzb-28" value="" style="outlineConnect=0;fontColor=#232F3E;gradientColor=none;fillColor=#3334B9;strokeColor=none;dashed=0;verticalLabelPosition=bottom;verticalAlign=top;align=center;html=1;fontSize=12;fontStyle=0;aspect=fixed;pointerEvents=1;shape=mxgraph.aws4.aurora_instance;" parent="j0Ey7iJQX1aD5_uYlDzb-23" vertex="1"><mxGeometry x="560" y="1250" width="70" height="70" as="geometry"/></mxCell><mxCell id="j0Ey7iJQX1aD5_uYlDzb-29" value="" style="outlineConnect=0;fontColor=#232F3E;gradientColor=none;fillColor=#3334B9;strokeColor=none;dashed=0;verticalLabelPosition=bottom;verticalAlign=top;align=center;html=1;fontSize=12;fontStyle=0;aspect=fixed;pointerEvents=1;shape=mxgraph.aws4.aurora_instance;" parent="j0Ey7iJQX1aD5_uYlDzb-23" vertex="1"><mxGeometry x="1440" y="1250" width="70" height="70" as="geometry"/></mxCell><mxCell id="j0Ey7iJQX1aD5_uYlDzb-30" value="" style="rounded=0;whiteSpace=wrap;html=1;fillColor=#C7E3FF;strokeColor=none;dashed=1;strokeWidth=2;" parent="j0Ey7iJQX1aD5_uYlDzb-23" vertex="1"><mxGeometry x="630" y="1265" width="370" height="40" as="geometry"/></mxCell><mxCell id="j0Ey7iJQX1aD5_uYlDzb-27" value="" style="outlineConnect=0;fontColor=#232F3E;gradientColor=none;fillColor=#3334B9;strokeColor=none;dashed=0;verticalLabelPosition=bottom;verticalAlign=top;align=center;html=1;fontSize=12;fontStyle=0;aspect=fixed;pointerEvents=1;shape=mxgraph.aws4.aurora_instance;" parent="j0Ey7iJQX1aD5_uYlDzb-23" vertex="1"><mxGeometry x="1000" y="1250" width="70" height="70" as="geometry"/></mxCell><mxCell id="j0Ey7iJQX1aD5_uYlDzb-78" value="" style="rounded=0;whiteSpace=wrap;html=1;fillColor=#C7E3FF;strokeColor=none;dashed=1;strokeWidth=2;" parent="j0Ey7iJQX1aD5_uYlDzb-23" vertex="1"><mxGeometry x="1070" y="1265" width="370" height="40" as="geometry"/></mxCell><mxCell id="j0Ey7iJQX1aD5_uYlDzb-32" value="EFS" style="locked=1;" parent="0"/><mxCell id="j0Ey7iJQX1aD5_uYlDzb-86" value="" style="group" parent="j0Ey7iJQX1aD5_uYlDzb-32" vertex="1" connectable="0"><mxGeometry x="730" y="1120" width="850" height="70" as="geometry"/></mxCell><mxCell id="j0Ey7iJQX1aD5_uYlDzb-38" value="" style="rounded=0;whiteSpace=wrap;html=1;fillColor=#008040;dashed=1;" parent="j0Ey7iJQX1aD5_uYlDzb-86" vertex="1"><mxGeometry x="70" y="30" width="320" height="20" as="geometry"/></mxCell><mxCell id="j0Ey7iJQX1aD5_uYlDzb-50" value="" style="points=[[0,0,0],[0.25,0,0],[0.5,0,0],[0.75,0,0],[1,0,0],[0,1,0],[0.25,1,0],[0.5,1,0],[0.75,1,0],[1,1,0],[0,0.25,0],[0,0.5,0],[0,0.75,0],[1,0.25,0],[1,0.5,0],[1,0.75,0]];outlineConnect=0;fontColor=#232F3E;gradientColor=#60A337;gradientDirection=north;fillColor=#277116;strokeColor=#ffffff;dashed=0;verticalLabelPosition=bottom;verticalAlign=top;align=center;html=1;fontSize=12;fontStyle=0;aspect=fixed;shape=mxgraph.aws4.resourceIcon;resIcon=mxgraph.aws4.efs_standard;" parent="j0Ey7iJQX1aD5_uYlDzb-86" vertex="1"><mxGeometry width="70" height="70" as="geometry"/></mxCell><mxCell id="j0Ey7iJQX1aD5_uYlDzb-51" value="" style="points=[[0,0,0],[0.25,0,0],[0.5,0,0],[0.75,0,0],[1,0,0],[0,1,0],[0.25,1,0],[0.5,1,0],[0.75,1,0],[1,1,0],[0,0.25,0],[0,0.5,0],[0,0.75,0],[1,0.25,0],[1,0.5,0],[1,0.75,0]];outlineConnect=0;fontColor=#232F3E;gradientColor=#60A337;gradientDirection=north;fillColor=#277116;strokeColor=#ffffff;dashed=0;verticalLabelPosition=bottom;verticalAlign=top;align=center;html=1;fontSize=12;fontStyle=0;aspect=fixed;shape=mxgraph.aws4.resourceIcon;resIcon=mxgraph.aws4.efs_standard;" parent="j0Ey7iJQX1aD5_uYlDzb-86" vertex="1"><mxGeometry x="390" width="70" height="70" as="geometry"/></mxCell><mxCell id="j0Ey7iJQX1aD5_uYlDzb-52" value="" style="points=[[0,0,0],[0.25,0,0],[0.5,0,0],[0.75,0,0],[1,0,0],[0,1,0],[0.25,1,0],[0.5,1,0],[0.75,1,0],[1,1,0],[0,0.25,0],[0,0.5,0],[0,0.75,0],[1,0.25,0],[1,0.5,0],[1,0.75,0]];outlineConnect=0;fontColor=#232F3E;gradientColor=#60A337;gradientDirection=north;fillColor=#277116;strokeColor=#ffffff;dashed=0;verticalLabelPosition=bottom;verticalAlign=top;align=center;html=1;fontSize=12;fontStyle=0;aspect=fixed;shape=mxgraph.aws4.resourceIcon;resIcon=mxgraph.aws4.efs_standard;" parent="j0Ey7iJQX1aD5_uYlDzb-86" vertex="1"><mxGeometry x="780" width="70" height="70" as="geometry"/></mxCell><mxCell id="j0Ey7iJQX1aD5_uYlDzb-58" value="&lt;b&gt;&lt;font style=&quot;font-size: 14px&quot;&gt;EFS&lt;/font&gt;&lt;/b&gt;" style="text;html=1;strokeColor=none;fillColor=none;align=center;verticalAlign=middle;whiteSpace=wrap;rounded=0;fontColor=#006600;" parent="j0Ey7iJQX1aD5_uYlDzb-86" vertex="1"><mxGeometry x="340" width="40" height="20" as="geometry"/></mxCell><mxCell id="j0Ey7iJQX1aD5_uYlDzb-85" value="" style="rounded=0;whiteSpace=wrap;html=1;fillColor=#008040;dashed=1;" parent="j0Ey7iJQX1aD5_uYlDzb-86" vertex="1"><mxGeometry x="460" y="30" width="320" height="20" as="geometry"/></mxCell><mxCell id="j0Ey7iJQX1aD5_uYlDzb-42" value="useful artifacts" parent="0" visible="0"/><mxCell id="j0Ey7iJQX1aD5_uYlDzb-43" value="" style="rounded=1;whiteSpace=wrap;html=1;fillColor=#C7E3FF;strokeColor=none;" parent="j0Ey7iJQX1aD5_uYlDzb-42" vertex="1"><mxGeometry x="1840" y="1440" width="450" height="40" as="geometry"/></mxCell><mxCell id="j0Ey7iJQX1aD5_uYlDzb-95" value="" style="group" parent="j0Ey7iJQX1aD5_uYlDzb-42" vertex="1" connectable="0"><mxGeometry x="1840" y="1500" width="450" height="78" as="geometry"/></mxCell><mxCell id="j0Ey7iJQX1aD5_uYlDzb-96" value="" style="rounded=1;whiteSpace=wrap;html=1;strokeColor=none;fillColor=#FF8000;" parent="j0Ey7iJQX1aD5_uYlDzb-95" vertex="1"><mxGeometry y="28.5" width="450" height="21" as="geometry"/></mxCell><mxCell id="j0Ey7iJQX1aD5_uYlDzb-97" value="" style="points=[[0,0,0],[0.25,0,0],[0.5,0,0],[0.75,0,0],[1,0,0],[0,1,0],[0.25,1,0],[0.5,1,0],[0.75,1,0],[1,1,0],[0,0.25,0],[0,0.5,0],[0,0.75,0],[1,0.25,0],[1,0.5,0],[1,0.75,0]];outlineConnect=0;fontColor=#232F3E;gradientColor=#F78E04;gradientDirection=north;fillColor=#D05C17;strokeColor=#ffffff;dashed=0;verticalLabelPosition=bottom;verticalAlign=top;align=center;html=1;fontSize=12;fontStyle=0;aspect=fixed;shape=mxgraph.aws4.resourceIcon;resIcon=mxgraph.aws4.auto_scaling2;" parent="j0Ey7iJQX1aD5_uYlDzb-95" vertex="1"><mxGeometry x="186" width="78" height="78" as="geometry"/></mxCell><mxCell id="j0Ey7iJQX1aD5_uYlDzb-60" value="Jira ECS" style="" parent="0"/><mxCell id="j0Ey7iJQX1aD5_uYlDzb-123" value="" style="rounded=1;arcSize=10;dashed=1;strokeColor=#ff0000;fillColor=none;gradientColor=none;dashPattern=8 4;strokeWidth=2;fontColor=#006600;" parent="j0Ey7iJQX1aD5_uYlDzb-60" vertex="1"><mxGeometry x="760" y="820" width="790" height="130" as="geometry"/></mxCell><mxCell id="j0Ey7iJQX1aD5_uYlDzb-120" value="" style="rounded=1;arcSize=10;dashed=1;strokeColor=#ff0000;fillColor=none;gradientColor=none;dashPattern=8 4;strokeWidth=2;fontColor=#006600;" parent="j0Ey7iJQX1aD5_uYlDzb-60" vertex="1"><mxGeometry x="673.25" y="460" width="921.5" height="160" as="geometry"/></mxCell><mxCell id="j0Ey7iJQX1aD5_uYlDzb-73" value="Application Load Balancer" style="outlineConnect=0;fontColor=#232F3E;gradientColor=none;strokeColor=#ffffff;fillColor=#232F3E;dashed=0;verticalLabelPosition=middle;verticalAlign=bottom;align=center;html=1;whiteSpace=wrap;fontSize=10;fontStyle=1;spacing=3;shape=mxgraph.aws4.productIcon;prIcon=mxgraph.aws4.application_load_balancer;" parent="j0Ey7iJQX1aD5_uYlDzb-60" vertex="1"><mxGeometry x="710" y="500" width="70" height="110" as="geometry"/></mxCell><mxCell id="j0Ey7iJQX1aD5_uYlDzb-74" value="Application Load Balancer" style="outlineConnect=0;fontColor=#232F3E;gradientColor=none;strokeColor=#ffffff;fillColor=#232F3E;dashed=0;verticalLabelPosition=middle;verticalAlign=bottom;align=center;html=1;whiteSpace=wrap;fontSize=10;fontStyle=1;spacing=3;shape=mxgraph.aws4.productIcon;prIcon=mxgraph.aws4.application_load_balancer;" parent="j0Ey7iJQX1aD5_uYlDzb-60" vertex="1"><mxGeometry x="1099" y="500" width="70" height="110" as="geometry"/></mxCell><mxCell id="j0Ey7iJQX1aD5_uYlDzb-75" value="Application Load Balancer" style="outlineConnect=0;fontColor=#232F3E;gradientColor=none;strokeColor=#ffffff;fillColor=#232F3E;dashed=0;verticalLabelPosition=middle;verticalAlign=bottom;align=center;html=1;whiteSpace=wrap;fontSize=10;fontStyle=1;spacing=3;shape=mxgraph.aws4.productIcon;prIcon=mxgraph.aws4.application_load_balancer;" parent="j0Ey7iJQX1aD5_uYlDzb-60" vertex="1"><mxGeometry x="1490" y="500" width="70" height="110" as="geometry"/></mxCell><mxCell id="j0Ey7iJQX1aD5_uYlDzb-92" value="" style="group" parent="j0Ey7iJQX1aD5_uYlDzb-60" vertex="1" connectable="0"><mxGeometry x="1940" y="820" width="70" height="110" as="geometry"/></mxCell><mxCell id="j0Ey7iJQX1aD5_uYlDzb-67" value="" style="group" parent="j0Ey7iJQX1aD5_uYlDzb-92" vertex="1" connectable="0"><mxGeometry width="70" height="110" as="geometry"/></mxCell><mxCell id="j0Ey7iJQX1aD5_uYlDzb-66" value="Cloudwatch Logs" style="text;html=1;strokeColor=none;fillColor=none;align=center;verticalAlign=middle;whiteSpace=wrap;rounded=0;fontColor=#006600;" parent="j0Ey7iJQX1aD5_uYlDzb-67" vertex="1"><mxGeometry x="15" y="90" width="40" height="20" as="geometry"/></mxCell><mxCell id="j0Ey7iJQX1aD5_uYlDzb-65" value="" style="outlineConnect=0;dashed=0;verticalLabelPosition=bottom;verticalAlign=top;align=center;html=1;shape=mxgraph.aws3.cloudwatch;fillColor=#759C3E;gradientColor=none;fontColor=#006600;" parent="j0Ey7iJQX1aD5_uYlDzb-92" vertex="1"><mxGeometry width="70" height="80" as="geometry"/></mxCell><mxCell id="j0Ey7iJQX1aD5_uYlDzb-99" value="Auto Scaling group" style="points=[[0,0],[0.25,0],[0.5,0],[0.75,0],[1,0],[1,0.25],[1,0.5],[1,0.75],[1,1],[0.75,1],[0.5,1],[0.25,1],[0,1],[0,0.75],[0,0.5],[0,0.25]];outlineConnect=0;gradientColor=none;html=1;whiteSpace=wrap;fontSize=12;fontStyle=0;shape=mxgraph.aws4.groupCenter;grIcon=mxgraph.aws4.group_auto_scaling_group;grStroke=1;strokeColor=#D86613;fillColor=none;verticalAlign=top;align=center;fontColor=#D86613;dashed=1;spacingTop=25;rounded=0;" parent="j0Ey7iJQX1aD5_uYlDzb-60" vertex="1"><mxGeometry x="814" y="850" width="640" height="80" as="geometry"/></mxCell><mxCell id="j0Ey7iJQX1aD5_uYlDzb-100" value="" style="outlineConnect=0;fontColor=#232F3E;gradientColor=none;fillColor=#D86613;strokeColor=none;dashed=0;verticalLabelPosition=bottom;verticalAlign=top;align=center;html=1;fontSize=12;fontStyle=0;aspect=fixed;pointerEvents=1;shape=mxgraph.aws4.instance_with_cloudwatch2;rounded=0;" parent="j0Ey7iJQX1aD5_uYlDzb-60" vertex="1"><mxGeometry x="840" y="850" width="48" height="48" as="geometry"/></mxCell><mxCell id="j0Ey7iJQX1aD5_uYlDzb-180" style="edgeStyle=orthogonalEdgeStyle;rounded=0;orthogonalLoop=1;jettySize=auto;html=1;exitX=1;exitY=0.5;exitDx=0;exitDy=0;entryX=0;entryY=0.75;entryDx=0;entryDy=0;entryPerimeter=0;fontColor=#006600;" parent="j0Ey7iJQX1aD5_uYlDzb-60" source="j0Ey7iJQX1aD5_uYlDzb-125" target="j0Ey7iJQX1aD5_uYlDzb-174" edge="1"><mxGeometry relative="1" as="geometry"/></mxCell><mxCell id="j0Ey7iJQX1aD5_uYlDzb-125" value="" style="rounded=1;arcSize=10;dashed=1;strokeColor=#ff0000;fillColor=none;gradientColor=none;dashPattern=8 4;strokeWidth=2;fontColor=#006600;" parent="j0Ey7iJQX1aD5_uYlDzb-60" vertex="1"><mxGeometry x="710" y="1090" width="890" height="120" as="geometry"/></mxCell><mxCell id="j0Ey7iJQX1aD5_uYlDzb-128" value="" style="rounded=1;arcSize=10;dashed=1;strokeColor=#ff0000;fillColor=none;gradientColor=none;dashPattern=8 4;strokeWidth=2;fontColor=#006600;" parent="j0Ey7iJQX1aD5_uYlDzb-60" vertex="1"><mxGeometry x="540" y="1230" width="1020" height="120" as="geometry"/></mxCell><mxCell id="j0Ey7iJQX1aD5_uYlDzb-129" value="" style="endArrow=classic;html=1;fontColor=#006600;" parent="j0Ey7iJQX1aD5_uYlDzb-60" source="j0Ey7iJQX1aD5_uYlDzb-102" target="j0Ey7iJQX1aD5_uYlDzb-73" edge="1"><mxGeometry width="50" height="50" relative="1" as="geometry"><mxPoint x="830" y="870" as="sourcePoint"/><mxPoint x="880" y="820" as="targetPoint"/></mxGeometry></mxCell><mxCell id="j0Ey7iJQX1aD5_uYlDzb-130" value="" style="endArrow=classic;html=1;fontColor=#006600;entryX=0.5;entryY=0;entryDx=0;entryDy=0;" parent="j0Ey7iJQX1aD5_uYlDzb-60" source="j0Ey7iJQX1aD5_uYlDzb-74" target="j0Ey7iJQX1aD5_uYlDzb-99" edge="1"><mxGeometry width="50" height="50" relative="1" as="geometry"><mxPoint x="830" y="870" as="sourcePoint"/><mxPoint x="880" y="820" as="targetPoint"/></mxGeometry></mxCell><mxCell id="j0Ey7iJQX1aD5_uYlDzb-131" value="" style="endArrow=classic;html=1;fontColor=#006600;entryX=0.494;entryY=0.25;entryDx=0;entryDy=0;entryPerimeter=0;" parent="j0Ey7iJQX1aD5_uYlDzb-60" source="j0Ey7iJQX1aD5_uYlDzb-100" target="j0Ey7iJQX1aD5_uYlDzb-125" edge="1"><mxGeometry width="50" height="50" relative="1" as="geometry"><mxPoint x="830" y="870" as="sourcePoint"/><mxPoint x="880" y="820" as="targetPoint"/></mxGeometry></mxCell><mxCell id="j0Ey7iJQX1aD5_uYlDzb-132" value="" style="endArrow=classic;html=1;fontColor=#006600;entryX=0.039;entryY=0.25;entryDx=0;entryDy=0;entryPerimeter=0;" parent="j0Ey7iJQX1aD5_uYlDzb-60" source="j0Ey7iJQX1aD5_uYlDzb-100" target="j0Ey7iJQX1aD5_uYlDzb-128" edge="1"><mxGeometry width="50" height="50" relative="1" as="geometry"><mxPoint x="1020" y="880" as="sourcePoint"/><mxPoint x="1070" y="830" as="targetPoint"/></mxGeometry></mxCell><mxCell id="j0Ey7iJQX1aD5_uYlDzb-133" value="" style="endArrow=classic;html=1;fontColor=#006600;entryX=0.5;entryY=0;entryDx=0;entryDy=0;" parent="j0Ey7iJQX1aD5_uYlDzb-60" source="j0Ey7iJQX1aD5_uYlDzb-73" target="j0Ey7iJQX1aD5_uYlDzb-99" edge="1"><mxGeometry width="50" height="50" relative="1" as="geometry"><mxPoint x="1020" y="880" as="sourcePoint"/><mxPoint x="1070" y="830" as="targetPoint"/></mxGeometry></mxCell><mxCell id="j0Ey7iJQX1aD5_uYlDzb-134" value="" style="endArrow=classic;html=1;fontColor=#006600;" parent="j0Ey7iJQX1aD5_uYlDzb-60" source="j0Ey7iJQX1aD5_uYlDzb-75" edge="1"><mxGeometry width="50" height="50" relative="1" as="geometry"><mxPoint x="1020" y="880" as="sourcePoint"/><mxPoint x="1140" y="840" as="targetPoint"/></mxGeometry></mxCell><mxCell id="j0Ey7iJQX1aD5_uYlDzb-135" value="" style="endArrow=classic;html=1;fontColor=#006600;" parent="j0Ey7iJQX1aD5_uYlDzb-60" source="j0Ey7iJQX1aD5_uYlDzb-102" target="j0Ey7iJQX1aD5_uYlDzb-75" edge="1"><mxGeometry width="50" height="50" relative="1" as="geometry"><mxPoint x="1020" y="880" as="sourcePoint"/><mxPoint x="1070" y="830" as="targetPoint"/></mxGeometry></mxCell><mxCell id="j0Ey7iJQX1aD5_uYlDzb-136" value="" style="endArrow=classic;html=1;fontColor=#006600;" parent="j0Ey7iJQX1aD5_uYlDzb-60" source="j0Ey7iJQX1aD5_uYlDzb-102" target="j0Ey7iJQX1aD5_uYlDzb-74" edge="1"><mxGeometry width="50" height="50" relative="1" as="geometry"><mxPoint x="1020" y="880" as="sourcePoint"/><mxPoint x="1070" y="830" as="targetPoint"/></mxGeometry></mxCell><mxCell id="j0Ey7iJQX1aD5_uYlDzb-139" value="" style="endArrow=classic;html=1;fontColor=#006600;" parent="j0Ey7iJQX1aD5_uYlDzb-60" target="j0Ey7iJQX1aD5_uYlDzb-102" edge="1"><mxGeometry width="50" height="50" relative="1" as="geometry"><mxPoint x="1133" y="160" as="sourcePoint"/><mxPoint x="1070" y="430" as="targetPoint"/></mxGeometry></mxCell><mxCell id="j0Ey7iJQX1aD5_uYlDzb-140" value="" style="outlineConnect=0;dashed=0;verticalLabelPosition=bottom;verticalAlign=top;align=center;html=1;shape=mxgraph.aws3.vpc_nat_gateway;fillColor=#F58536;gradientColor=none;rounded=0;strokeColor=#006600;strokeWidth=2;fontColor=#006600;" parent="j0Ey7iJQX1aD5_uYlDzb-60" vertex="1"><mxGeometry x="880" y="400" width="40" height="40" as="geometry"/></mxCell><mxCell id="j0Ey7iJQX1aD5_uYlDzb-142" value="" style="outlineConnect=0;dashed=0;verticalLabelPosition=bottom;verticalAlign=top;align=center;html=1;shape=mxgraph.aws3.vpc_nat_gateway;fillColor=#F58536;gradientColor=none;rounded=0;strokeColor=#006600;strokeWidth=2;fontColor=#006600;" parent="j0Ey7iJQX1aD5_uYlDzb-60" vertex="1"><mxGeometry x="1310" y="400" width="40" height="40" as="geometry"/></mxCell><mxCell id="j0Ey7iJQX1aD5_uYlDzb-143" value="" style="outlineConnect=0;dashed=0;verticalLabelPosition=bottom;verticalAlign=top;align=center;html=1;shape=mxgraph.aws3.vpc_nat_gateway;fillColor=#F58536;gradientColor=none;rounded=0;strokeColor=#006600;strokeWidth=2;fontColor=#006600;" parent="j0Ey7iJQX1aD5_uYlDzb-60" vertex="1"><mxGeometry x="1740" y="400" width="40" height="40" as="geometry"/></mxCell><mxCell id="j0Ey7iJQX1aD5_uYlDzb-147" value="" style="endArrow=classic;html=1;fontColor=#006600;" parent="j0Ey7iJQX1aD5_uYlDzb-60" source="j0Ey7iJQX1aD5_uYlDzb-128" target="j0Ey7iJQX1aD5_uYlDzb-146" edge="1"><mxGeometry width="50" height="50" relative="1" as="geometry"><mxPoint x="1020" y="940" as="sourcePoint"/><mxPoint x="1070" y="890" as="targetPoint"/></mxGeometry></mxCell><mxCell id="j0Ey7iJQX1aD5_uYlDzb-148" value="" style="endArrow=classic;html=1;fontColor=#006600;" parent="j0Ey7iJQX1aD5_uYlDzb-60" source="j0Ey7iJQX1aD5_uYlDzb-100" target="j0Ey7iJQX1aD5_uYlDzb-144" edge="1"><mxGeometry width="50" height="50" relative="1" as="geometry"><mxPoint x="1020" y="940" as="sourcePoint"/><mxPoint x="1070" y="890" as="targetPoint"/></mxGeometry></mxCell><mxCell id="j0Ey7iJQX1aD5_uYlDzb-149" value="" style="endArrow=classic;html=1;fontColor=#006600;" parent="j0Ey7iJQX1aD5_uYlDzb-60" source="j0Ey7iJQX1aD5_uYlDzb-73" target="j0Ey7iJQX1aD5_uYlDzb-145" edge="1"><mxGeometry width="50" height="50" relative="1" as="geometry"><mxPoint x="1020" y="940" as="sourcePoint"/><mxPoint x="1070" y="890" as="targetPoint"/></mxGeometry></mxCell><mxCell id="j0Ey7iJQX1aD5_uYlDzb-156" value="" style="group" parent="j0Ey7iJQX1aD5_uYlDzb-60" vertex="1" connectable="0"><mxGeometry x="100" y="837.75" width="60" height="96.5" as="geometry"/></mxCell><mxCell id="j0Ey7iJQX1aD5_uYlDzb-154" value="" style="outlineConnect=0;dashed=0;verticalLabelPosition=bottom;verticalAlign=top;align=center;html=1;shape=mxgraph.aws3.sns;fillColor=#D9A741;gradientColor=none;rounded=0;strokeColor=#006600;strokeWidth=2;fontColor=#006600;" parent="j0Ey7iJQX1aD5_uYlDzb-156" vertex="1"><mxGeometry width="60" height="66.5" as="geometry"/></mxCell><mxCell id="j0Ey7iJQX1aD5_uYlDzb-155" value="&lt;font color=&quot;#b58150&quot;&gt;SNS&lt;/font&gt;" style="text;html=1;strokeColor=none;fillColor=none;align=center;verticalAlign=middle;whiteSpace=wrap;rounded=0;dashed=1;fontColor=#006600;" parent="j0Ey7iJQX1aD5_uYlDzb-156" vertex="1"><mxGeometry x="10" y="76.5" width="40" height="20" as="geometry"/></mxCell><mxCell id="j0Ey7iJQX1aD5_uYlDzb-157" value="" style="group" parent="j0Ey7iJQX1aD5_uYlDzb-60" vertex="1" connectable="0"><mxGeometry x="300" y="843.5" width="55" height="85" as="geometry"/></mxCell><mxCell id="j0Ey7iJQX1aD5_uYlDzb-144" value="" style="outlineConnect=0;fontColor=#232F3E;gradientColor=none;fillColor=#BC1356;strokeColor=none;dashed=0;verticalLabelPosition=bottom;verticalAlign=top;align=center;html=1;fontSize=12;fontStyle=0;aspect=fixed;pointerEvents=1;shape=mxgraph.aws4.alarm;rounded=0;" parent="j0Ey7iJQX1aD5_uYlDzb-157" vertex="1"><mxGeometry width="55" height="55" as="geometry"/></mxCell><mxCell id="j0Ey7iJQX1aD5_uYlDzb-152" value="&lt;font color=&quot;#99004d&quot;&gt;Cloudwatch&lt;br&gt;Alarms&lt;/font&gt;" style="text;html=1;strokeColor=none;fillColor=none;align=center;verticalAlign=middle;whiteSpace=wrap;rounded=0;dashed=1;fontColor=#006600;" parent="j0Ey7iJQX1aD5_uYlDzb-157" vertex="1"><mxGeometry x="1.25" y="55" width="52.5" height="30" as="geometry"/></mxCell><mxCell id="j0Ey7iJQX1aD5_uYlDzb-158" value="" style="group" parent="j0Ey7iJQX1aD5_uYlDzb-60" vertex="1" connectable="0"><mxGeometry x="300" y="512.5" width="55" height="87.5" as="geometry"/></mxCell><mxCell id="j0Ey7iJQX1aD5_uYlDzb-145" value="" style="outlineConnect=0;fontColor=#232F3E;gradientColor=none;fillColor=#BC1356;strokeColor=none;dashed=0;verticalLabelPosition=bottom;verticalAlign=top;align=center;html=1;fontSize=12;fontStyle=0;aspect=fixed;pointerEvents=1;shape=mxgraph.aws4.alarm;rounded=0;" parent="j0Ey7iJQX1aD5_uYlDzb-158" vertex="1"><mxGeometry width="55" height="55" as="geometry"/></mxCell><mxCell id="j0Ey7iJQX1aD5_uYlDzb-151" value="&lt;font color=&quot;#99004d&quot;&gt;Cloudwatch&lt;br&gt;Alarms&lt;/font&gt;" style="text;html=1;strokeColor=none;fillColor=none;align=center;verticalAlign=middle;whiteSpace=wrap;rounded=0;dashed=1;fontColor=#006600;" parent="j0Ey7iJQX1aD5_uYlDzb-158" vertex="1"><mxGeometry x="2.5" y="57.5" width="52.5" height="30" as="geometry"/></mxCell><mxCell id="j0Ey7iJQX1aD5_uYlDzb-159" value="" style="group" parent="j0Ey7iJQX1aD5_uYlDzb-60" vertex="1" connectable="0"><mxGeometry x="300" y="1240" width="55" height="85" as="geometry"/></mxCell><mxCell id="j0Ey7iJQX1aD5_uYlDzb-146" value="" style="outlineConnect=0;fontColor=#232F3E;gradientColor=none;fillColor=#BC1356;strokeColor=none;dashed=0;verticalLabelPosition=bottom;verticalAlign=top;align=center;html=1;fontSize=12;fontStyle=0;aspect=fixed;pointerEvents=1;shape=mxgraph.aws4.alarm;rounded=0;" parent="j0Ey7iJQX1aD5_uYlDzb-159" vertex="1"><mxGeometry width="55" height="55" as="geometry"/></mxCell><mxCell id="j0Ey7iJQX1aD5_uYlDzb-153" value="&lt;font color=&quot;#99004d&quot;&gt;Cloudwatch&lt;br&gt;Alarms&lt;/font&gt;" style="text;html=1;strokeColor=none;fillColor=none;align=center;verticalAlign=middle;whiteSpace=wrap;rounded=0;dashed=1;fontColor=#006600;" parent="j0Ey7iJQX1aD5_uYlDzb-159" vertex="1"><mxGeometry x="2.5" y="55" width="52.5" height="30" as="geometry"/></mxCell><mxCell id="j0Ey7iJQX1aD5_uYlDzb-160" value="" style="outlineConnect=0;dashed=0;verticalLabelPosition=bottom;verticalAlign=top;align=center;html=1;shape=mxgraph.aws3.lambda_function;fillColor=#F58534;gradientColor=none;rounded=0;strokeColor=#006600;strokeWidth=2;fontColor=#006600;" parent="j0Ey7iJQX1aD5_uYlDzb-60" vertex="1"><mxGeometry x="-30" y="835" width="69" height="72" as="geometry"/></mxCell><mxCell id="j0Ey7iJQX1aD5_uYlDzb-161" value="MoJDS Slack &#10;cr-alerts-jira-prod" style="shape=image;imageAspect=0;aspect=fixed;verticalLabelPosition=bottom;verticalAlign=top;strokeColor=#330000;fontColor=#3333FF;align=left;image=https://cdn.mos.cms.futurecdn.net/SDDw7CnuoUGax6x9mTo7dd.jpg;" parent="j0Ey7iJQX1aD5_uYlDzb-60" vertex="1"><mxGeometry x="-170" y="848.54" width="79.73" height="44.92" as="geometry"/></mxCell><mxCell id="j0Ey7iJQX1aD5_uYlDzb-162" value="" style="endArrow=classic;html=1;fontColor=#006600;" parent="j0Ey7iJQX1aD5_uYlDzb-60" source="j0Ey7iJQX1aD5_uYlDzb-145" target="j0Ey7iJQX1aD5_uYlDzb-154" edge="1"><mxGeometry width="50" height="50" relative="1" as="geometry"><mxPoint x="590" y="780" as="sourcePoint"/><mxPoint x="640" y="730" as="targetPoint"/></mxGeometry></mxCell><mxCell id="j0Ey7iJQX1aD5_uYlDzb-163" value="" style="endArrow=classic;html=1;fontColor=#006600;entryX=1;entryY=0.5;entryDx=0;entryDy=0;entryPerimeter=0;" parent="j0Ey7iJQX1aD5_uYlDzb-60" source="j0Ey7iJQX1aD5_uYlDzb-144" target="j0Ey7iJQX1aD5_uYlDzb-154" edge="1"><mxGeometry width="50" height="50" relative="1" as="geometry"><mxPoint x="590" y="780" as="sourcePoint"/><mxPoint x="170" y="870" as="targetPoint"/></mxGeometry></mxCell><mxCell id="j0Ey7iJQX1aD5_uYlDzb-164" value="" style="endArrow=classic;html=1;fontColor=#006600;" parent="j0Ey7iJQX1aD5_uYlDzb-60" source="j0Ey7iJQX1aD5_uYlDzb-146" target="j0Ey7iJQX1aD5_uYlDzb-154" edge="1"><mxGeometry width="50" height="50" relative="1" as="geometry"><mxPoint x="590" y="780" as="sourcePoint"/><mxPoint x="640" y="730" as="targetPoint"/></mxGeometry></mxCell><mxCell id="j0Ey7iJQX1aD5_uYlDzb-165" value="" style="endArrow=classic;html=1;fontColor=#006600;" parent="j0Ey7iJQX1aD5_uYlDzb-60" source="j0Ey7iJQX1aD5_uYlDzb-154" target="j0Ey7iJQX1aD5_uYlDzb-160" edge="1"><mxGeometry width="50" height="50" relative="1" as="geometry"><mxPoint x="590" y="780" as="sourcePoint"/><mxPoint x="640" y="730" as="targetPoint"/></mxGeometry></mxCell><mxCell id="j0Ey7iJQX1aD5_uYlDzb-166" value="" style="endArrow=classic;html=1;fontColor=#006600;" parent="j0Ey7iJQX1aD5_uYlDzb-60" source="j0Ey7iJQX1aD5_uYlDzb-160" target="j0Ey7iJQX1aD5_uYlDzb-161" edge="1"><mxGeometry width="50" height="50" relative="1" as="geometry"><mxPoint x="590" y="780" as="sourcePoint"/><mxPoint x="640" y="730" as="targetPoint"/></mxGeometry></mxCell><mxCell id="j0Ey7iJQX1aD5_uYlDzb-167" value="DOM1&lt;br&gt;Quantum&lt;br&gt;PTTP&lt;br&gt;Clients" style="aspect=fixed;perimeter=ellipsePerimeter;html=1;align=center;shadow=0;dashed=0;spacingTop=3;image;image=img/lib/active_directory/workstation_client.svg;fontColor=#6666FF;" parent="j0Ey7iJQX1aD5_uYlDzb-60" vertex="1"><mxGeometry x="930" y="-40" width="42.5" height="50" as="geometry"/></mxCell><mxCell id="j0Ey7iJQX1aD5_uYlDzb-168" value="Public &lt;br&gt;Internet" style="ellipse;shape=cloud;whiteSpace=wrap;html=1;strokeColor=#330000;gradientColor=#ffffff;fontColor=#330000;opacity=50;align=center;" parent="j0Ey7iJQX1aD5_uYlDzb-60" vertex="1"><mxGeometry x="1074" y="90" width="120" height="80" as="geometry"/></mxCell><mxCell id="j0Ey7iJQX1aD5_uYlDzb-169" value="" style="group" parent="j0Ey7iJQX1aD5_uYlDzb-60" vertex="1" connectable="0"><mxGeometry x="1232" y="-40" width="78" height="100" as="geometry"/></mxCell><mxCell id="j0Ey7iJQX1aD5_uYlDzb-137" value="" style="points=[[0,0,0],[0.25,0,0],[0.5,0,0],[0.75,0,0],[1,0,0],[0,1,0],[0.25,1,0],[0.5,1,0],[0.75,1,0],[1,1,0],[0,0.25,0],[0,0.5,0],[0,0.75,0],[1,0.25,0],[1,0.5,0],[1,0.75,0]];outlineConnect=0;fontColor=#232F3E;gradientColor=#945DF2;gradientDirection=north;fillColor=#5A30B5;strokeColor=#ffffff;dashed=0;verticalLabelPosition=bottom;verticalAlign=top;align=center;html=1;fontSize=12;fontStyle=0;aspect=fixed;shape=mxgraph.aws4.resourceIcon;resIcon=mxgraph.aws4.client_vpn;rounded=0;" parent="j0Ey7iJQX1aD5_uYlDzb-169" vertex="1"><mxGeometry width="78" height="78" as="geometry"/></mxCell><mxCell id="j0Ey7iJQX1aD5_uYlDzb-138" value="&lt;font color=&quot;#6600cc&quot;&gt;MOJ VPN&lt;/font&gt;" style="text;html=1;strokeColor=none;fillColor=none;align=center;verticalAlign=middle;whiteSpace=wrap;rounded=0;dashed=1;fontColor=#006600;" parent="j0Ey7iJQX1aD5_uYlDzb-169" vertex="1"><mxGeometry x="19" y="80" width="40" height="20" as="geometry"/></mxCell><mxCell id="j0Ey7iJQX1aD5_uYlDzb-170" value="" style="endArrow=classic;html=1;fontColor=#006600;entryX=0.25;entryY=0.25;entryDx=0;entryDy=0;entryPerimeter=0;" parent="j0Ey7iJQX1aD5_uYlDzb-60" source="j0Ey7iJQX1aD5_uYlDzb-167" target="j0Ey7iJQX1aD5_uYlDzb-168" edge="1"><mxGeometry width="50" height="50" relative="1" as="geometry"><mxPoint x="590" y="220" as="sourcePoint"/><mxPoint x="640" y="170" as="targetPoint"/></mxGeometry></mxCell><mxCell id="j0Ey7iJQX1aD5_uYlDzb-171" value="" style="endArrow=classic;html=1;fontColor=#006600;exitX=0;exitY=1;exitDx=0;exitDy=0;exitPerimeter=0;" parent="j0Ey7iJQX1aD5_uYlDzb-60" source="j0Ey7iJQX1aD5_uYlDzb-137" target="j0Ey7iJQX1aD5_uYlDzb-168" edge="1"><mxGeometry width="50" height="50" relative="1" as="geometry"><mxPoint x="590" y="220" as="sourcePoint"/><mxPoint x="640" y="170" as="targetPoint"/></mxGeometry></mxCell><mxCell id="j0Ey7iJQX1aD5_uYlDzb-172" value="&lt;meta charset=&quot;utf-8&quot;&gt;&lt;span style=&quot;color: rgb(0, 0, 0); font-family: helvetica; font-size: 12px; font-style: normal; font-weight: 400; letter-spacing: normal; text-align: center; text-indent: 0px; text-transform: none; word-spacing: 0px; background-color: rgb(248, 249, 250); display: inline; float: none;&quot;&gt;https://service.jira.cr.probation.service.justice.gov.uk&lt;/span&gt;" style="points=[[0,0,0],[0.25,0,0],[0.5,0,0],[0.75,0,0],[1,0,0],[0,1,0],[0.25,1,0],[0.5,1,0],[0.75,1,0],[1,1,0],[0,0.25,0],[0,0.5,0],[0,0.75,0],[1,0.25,0],[1,0.5,0],[1,0.75,0]];outlineConnect=0;fontColor=#232F3E;gradientColor=#945DF2;gradientDirection=north;fillColor=#5A30B5;strokeColor=#ffffff;dashed=0;verticalLabelPosition=bottom;verticalAlign=top;align=center;html=1;fontSize=12;fontStyle=0;aspect=fixed;shape=mxgraph.aws4.resourceIcon;resIcon=mxgraph.aws4.route_53;rounded=0;" parent="j0Ey7iJQX1aD5_uYlDzb-60" vertex="1"><mxGeometry x="500" y="100" width="78" height="78" as="geometry"/></mxCell><mxCell id="j0Ey7iJQX1aD5_uYlDzb-173" value="" style="shape=flexArrow;endArrow=classic;html=1;fontColor=#006600;" parent="j0Ey7iJQX1aD5_uYlDzb-60" source="j0Ey7iJQX1aD5_uYlDzb-172" target="j0Ey7iJQX1aD5_uYlDzb-73" edge="1"><mxGeometry width="50" height="50" relative="1" as="geometry"><mxPoint x="880" y="220" as="sourcePoint"/><mxPoint x="930" y="170" as="targetPoint"/></mxGeometry></mxCell><mxCell id="j0Ey7iJQX1aD5_uYlDzb-174" value="" style="points=[[0,0,0],[0.25,0,0],[0.5,0,0],[0.75,0,0],[1,0,0],[0,1,0],[0.25,1,0],[0.5,1,0],[0.75,1,0],[1,1,0],[0,0.25,0],[0,0.5,0],[0,0.75,0],[1,0.25,0],[1,0.5,0],[1,0.75,0]];outlineConnect=0;fontColor=#232F3E;gradientColor=#60A337;gradientDirection=north;fillColor=#277116;strokeColor=#ffffff;dashed=0;verticalLabelPosition=bottom;verticalAlign=top;align=center;html=1;fontSize=12;fontStyle=0;aspect=fixed;shape=mxgraph.aws4.resourceIcon;resIcon=mxgraph.aws4.backup;rounded=0;" parent="j0Ey7iJQX1aD5_uYlDzb-60" vertex="1"><mxGeometry x="1920" y="1090" width="78" height="78" as="geometry"/></mxCell><mxCell id="j0Ey7iJQX1aD5_uYlDzb-175" value="Backup" style="text;html=1;strokeColor=none;fillColor=none;align=center;verticalAlign=middle;whiteSpace=wrap;rounded=0;dashed=1;fontColor=#006600;" parent="j0Ey7iJQX1aD5_uYlDzb-60" vertex="1"><mxGeometry x="1940" y="1168" width="40" height="20" as="geometry"/></mxCell><mxCell id="j0Ey7iJQX1aD5_uYlDzb-181" value="" style="outlineConnect=0;dashed=0;verticalLabelPosition=bottom;verticalAlign=top;align=center;html=1;shape=mxgraph.aws3.snapshot;fillColor=#E05243;gradientColor=none;rounded=0;strokeColor=#006600;strokeWidth=2;fontColor=#006600;" parent="j0Ey7iJQX1aD5_uYlDzb-60" vertex="1"><mxGeometry x="1930" y="1260" width="60" height="73.5" as="geometry"/></mxCell><mxCell id="j0Ey7iJQX1aD5_uYlDzb-182" value="&lt;font color=&quot;#ff3399&quot;&gt;Snapshot&lt;br&gt;&lt;/font&gt;" style="text;html=1;strokeColor=none;fillColor=none;align=center;verticalAlign=middle;whiteSpace=wrap;rounded=0;dashed=1;fontColor=#006600;" parent="j0Ey7iJQX1aD5_uYlDzb-60" vertex="1"><mxGeometry x="1940" y="1319.5" width="40" height="20" as="geometry"/></mxCell><mxCell id="j0Ey7iJQX1aD5_uYlDzb-183" value="" style="endArrow=classic;html=1;fontColor=#006600;exitX=1;exitY=0.5;exitDx=0;exitDy=0;" parent="j0Ey7iJQX1aD5_uYlDzb-60" source="j0Ey7iJQX1aD5_uYlDzb-128" target="j0Ey7iJQX1aD5_uYlDzb-181" edge="1"><mxGeometry width="50" height="50" relative="1" as="geometry"><mxPoint x="2030" y="1070" as="sourcePoint"/><mxPoint x="2080" y="1020" as="targetPoint"/></mxGeometry></mxCell><mxCell id="j0Ey7iJQX1aD5_uYlDzb-184" value="" style="endArrow=classic;html=1;fontColor=#006600;entryX=0;entryY=0.78;entryDx=0;entryDy=0;entryPerimeter=0;" parent="j0Ey7iJQX1aD5_uYlDzb-60" source="j0Ey7iJQX1aD5_uYlDzb-99" target="j0Ey7iJQX1aD5_uYlDzb-65" edge="1"><mxGeometry width="50" height="50" relative="1" as="geometry"><mxPoint x="1510" y="1070" as="sourcePoint"/><mxPoint x="1560" y="1020" as="targetPoint"/></mxGeometry></mxCell></root></mxGraphModel></diagram></mxfile>